<svg width="601" height="605" viewBox="0 0 601 605" fill="none" xmlns="http://www.w3.org/2000/svg">
<path d="M505.693 204C558.16 204 600.693 246.533 600.693 299V303C600.693 356.019 557.712 399 504.693 399H367.692C355.943 399.5 341.536 397.918 373.192 371.5C393.72 354.369 402.44 342.414 405.693 334.398V282C405.693 238.922 440.615 204 483.693 204H505.693Z" fill="#01ACCA"/>
<path d="M204 95C204 42.5333 246.533 1.99967e-05 299 1.99161e-05H303C356.019 1.99161e-05 399 42.981 399 96V233.001C399.5 244.75 397.918 259.157 371.5 227.501C354.369 206.974 342.414 198.254 334.398 195H282C238.922 195 204 160.078 204 117V95Z" fill="#FD8958"/>
<path d="M95 399.068C42.5333 399.068 1.99967e-05 356.535 1.99161e-05 304.068V300.068C1.99161e-05 247.049 42.981 204.069 96 204.068L233.001 204.068C244.75 203.568 259.157 205.151 227.501 231.568C206.974 248.699 198.254 260.655 195 268.67V321.068C195 364.147 160.078 399.068 117 399.068H95Z" fill="#0051C7"/>
<path d="M401.068 509.693C401.068 562.16 358.535 604.693 306.068 604.693H302.068C249.049 604.693 206.069 561.712 206.068 508.693L206.068 371.692C205.568 359.943 207.151 345.536 233.568 377.192C250.699 397.72 262.655 406.44 270.67 409.693H323.068C366.147 409.693 401.068 444.615 401.068 487.693V509.693Z" fill="#FE505A"/>
</svg>
