<svg width="788" height="249" viewBox="0 0 788 249" fill="none" xmlns="http://www.w3.org/2000/svg">
<path d="M207.376 83.9875C229.428 83.9879 247.306 101.865 247.306 123.918C247.306 146.203 229.24 164.27 206.955 164.27H151.379C146.541 164.476 140.611 163.823 153.643 152.948C162.096 145.893 165.685 140.97 167.024 137.67V120.184C167.024 100.193 183.23 83.9876 203.22 83.9875H207.376Z" fill="#01ACCA"/>
<path d="M83.9866 39.9316C83.9867 17.8786 101.864 6.39005e-05 123.917 0C146.202 1.25175e-05 164.269 18.0663 164.269 40.3516V95.9277C164.475 100.765 163.822 106.696 152.947 93.6631C145.892 85.2099 140.969 81.6211 137.669 80.2822H120.183C100.192 80.2821 83.9866 64.0766 83.9866 44.0859V39.9316Z" fill="#FD8958"/>
<path d="M39.9307 164.298C17.8777 164.298 0.000166624 146.42 0 124.367C3.80446e-05 102.082 18.0655 84.0156 40.3506 84.0154L95.9268 84.0154C100.764 83.8096 106.695 84.4618 93.6621 95.3376C85.2089 102.392 81.62 107.315 80.2813 110.615V128.101C80.2811 148.092 64.0755 164.298 44.085 164.298H39.9307Z" fill="#0051C7"/>
<path d="M165.12 209.022C165.12 231.075 147.242 248.953 125.189 248.953C102.904 248.953 84.838 230.888 84.8378 208.603L84.8378 153.026C84.632 148.189 85.2844 142.259 96.16 155.291C103.214 163.744 108.137 167.333 111.437 168.672H128.924C148.914 168.672 165.12 184.878 165.12 204.868V209.022Z" fill="#FE505A"/>
<path d="M306.68 147V57.4H336.376C342.563 57.4 348.344 58.5733 353.72 60.92C359.139 63.224 363.896 66.4453 367.992 70.584C372.131 74.68 375.352 79.4373 377.656 84.856C380.003 90.232 381.176 96.0133 381.176 102.2C381.176 108.387 380.003 114.189 377.656 119.608C375.352 124.984 372.131 129.741 367.992 133.88C363.896 137.976 359.139 141.197 353.72 143.544C348.344 145.848 342.563 147 336.376 147H306.68ZM322.296 131.384H336.376C340.344 131.384 344.077 130.637 347.576 129.144C351.117 127.608 354.232 125.517 356.92 122.872C359.608 120.184 361.72 117.091 363.256 113.592C364.792 110.051 365.56 106.253 365.56 102.2C365.56 98.1467 364.792 94.3707 363.256 90.872C361.72 87.3733 359.608 84.28 356.92 81.592C354.232 78.904 351.139 76.8133 347.64 75.32C344.141 73.784 340.387 73.016 336.376 73.016H322.296V131.384ZM392.244 147L392.18 83H407.796L407.86 88.696C410.036 86.392 412.639 84.5787 415.668 83.256C418.697 81.8907 421.961 81.208 425.46 81.208C427.807 81.208 430.153 81.5493 432.5 82.232L426.356 97.976C424.735 97.336 423.113 97.016 421.492 97.016C418.975 97.016 416.671 97.6347 414.58 98.872C412.532 100.067 410.889 101.709 409.652 103.8C408.457 105.848 407.86 108.131 407.86 110.648V147H392.244ZM441.245 148.664C439.026 148.664 437.128 147.896 435.549 146.36C434.013 144.781 433.245 142.861 433.245 140.6C433.245 138.424 434.013 136.547 435.549 134.968C437.128 133.389 439.026 132.6 441.245 132.6C443.464 132.6 445.362 133.389 446.941 134.968C448.52 136.547 449.309 138.424 449.309 140.6C449.309 142.861 448.52 144.781 446.941 146.36C445.362 147.896 443.464 148.664 441.245 148.664ZM464.68 147L482.088 57.4H495.016L516.84 114.808L538.664 57.4H551.592L569 147H553.064L542.312 91.576L522.152 144.952H511.464L491.304 91.576L480.616 147H464.68ZM581.805 83H597.421V147H581.805V83ZM589.741 74.744C587.437 74.744 585.496 73.9973 583.917 72.504C582.338 70.968 581.549 69.048 581.549 66.744C581.549 64.4827 582.338 62.584 583.917 61.048C585.496 59.512 587.416 58.744 589.677 58.744C591.938 58.744 593.837 59.512 595.373 61.048C596.952 62.584 597.741 64.4827 597.741 66.744C597.741 69.048 596.973 70.968 595.437 72.504C593.901 73.9973 592.002 74.744 589.741 74.744ZM639.465 148.664C633.577 148.664 628.201 147.149 623.337 144.12C618.516 141.091 614.654 137.037 611.753 131.96C608.894 126.84 607.465 121.187 607.465 115C607.465 110.307 608.297 105.933 609.961 101.88C611.625 97.784 613.908 94.2 616.809 91.128C619.753 88.0133 623.166 85.5813 627.049 83.832C630.932 82.0827 635.07 81.208 639.465 81.208C645.353 81.208 650.708 82.7227 655.529 85.752C660.393 88.7813 664.254 92.856 667.113 97.976C670.014 103.096 671.465 108.771 671.465 115C671.465 119.651 670.633 124.003 668.969 128.056C667.305 132.109 665.001 135.693 662.057 138.808C659.156 141.88 655.764 144.291 651.881 146.04C648.041 147.789 643.902 148.664 639.465 148.664ZM639.465 133.048C642.58 133.048 645.374 132.216 647.849 130.552C650.324 128.888 652.265 126.691 653.673 123.96C655.124 121.229 655.849 118.243 655.849 115C655.849 111.672 655.102 108.643 653.609 105.912C652.158 103.139 650.174 100.941 647.657 99.32C645.182 97.656 642.452 96.824 639.465 96.824C636.393 96.824 633.62 97.656 631.145 99.32C628.67 100.984 626.708 103.203 625.257 105.976C623.806 108.749 623.081 111.757 623.081 115C623.081 118.371 623.828 121.421 625.321 124.152C626.814 126.883 628.798 129.059 631.273 130.68C633.79 132.259 636.521 133.048 639.465 133.048ZM681.43 147V83H697.046V88.696C699.222 86.392 701.825 84.5787 704.854 83.256C707.883 81.8907 711.147 81.208 714.646 81.208C719.083 81.208 723.158 82.2533 726.87 84.344C730.625 86.4347 733.611 89.2293 735.83 92.728C738.091 89.2293 741.078 86.4347 744.79 84.344C748.502 82.2533 752.577 81.208 757.014 81.208C761.707 81.208 765.953 82.36 769.75 84.664C773.59 86.9253 776.641 89.976 778.902 93.816C781.206 97.6133 782.358 101.859 782.358 106.552V147H766.742V110.712C766.742 108.237 766.123 105.976 764.886 103.928C763.691 101.837 762.07 100.173 760.022 98.936C758.017 97.656 755.755 97.016 753.238 97.016C750.721 97.016 748.438 97.6347 746.39 98.872C744.385 100.067 742.763 101.688 741.526 103.736C740.289 105.784 739.67 108.109 739.67 110.712V147H724.054V110.712C724.054 108.109 723.457 105.784 722.262 103.736C721.067 101.688 719.446 100.067 717.398 98.872C715.35 97.6347 713.067 97.016 710.55 97.016C708.075 97.016 705.814 97.656 703.766 98.936C701.718 100.173 700.075 101.837 698.838 103.928C697.643 105.976 697.046 108.237 697.046 110.712V147H681.43Z" fill="#011D4C"/>
<path d="M310.64 199.52C308.053 199.493 305.947 198.92 304.32 197.8C302.693 196.653 301.613 195.133 301.08 193.24C301.373 192.733 301.84 192.333 302.48 192.04C303.147 191.72 303.773 191.587 304.36 191.64C304.84 193.08 305.64 194.173 306.76 194.92C307.88 195.667 309.24 196.027 310.84 196C312.547 195.973 313.92 195.533 314.96 194.68C316 193.8 316.52 192.613 316.52 191.12C316.52 188.853 315.333 187.387 312.96 186.72L307.64 185.24C305.773 184.707 304.307 183.8 303.24 182.52C302.173 181.213 301.64 179.667 301.64 177.88C301.64 176.28 302.04 174.853 302.84 173.6C303.667 172.347 304.787 171.373 306.2 170.68C307.64 169.96 309.28 169.6 311.12 169.6C313.173 169.6 315.013 170.04 316.64 170.92C318.293 171.773 319.453 172.907 320.12 174.32C319.88 174.747 319.48 175.173 318.92 175.6C318.387 176 317.8 176.307 317.16 176.52C315.853 174.253 313.8 173.12 311 173.12C309.347 173.12 308 173.547 306.96 174.4C305.92 175.227 305.4 176.307 305.4 177.64C305.4 179.773 306.773 181.227 309.52 182L314.24 183.28C316.133 183.787 317.613 184.733 318.68 186.12C319.747 187.48 320.28 189.133 320.28 191.08C320.28 192.787 319.853 194.28 319 195.56C318.173 196.84 317.027 197.827 315.56 198.52C314.12 199.187 312.48 199.52 310.64 199.52ZM325.879 188.44C325.293 188.307 324.746 188.08 324.239 187.76C323.733 187.44 323.306 187 322.959 186.44L324.319 184.4C325.599 182.507 326.746 181.227 327.759 180.56C328.799 179.893 329.919 179.56 331.119 179.56C332.266 179.56 333.239 179.893 334.039 180.56C334.866 181.2 335.453 182.093 335.799 183.24C336.413 182.067 337.213 181.16 338.199 180.52C339.213 179.88 340.346 179.56 341.599 179.56C344.213 179.56 345.986 180.907 346.919 183.6C347.559 182.32 348.426 181.333 349.519 180.64C350.613 179.92 351.853 179.56 353.239 179.56C355.133 179.56 356.586 180.16 357.599 181.36C358.613 182.56 359.119 184.253 359.119 186.44V192C359.119 193.467 359.306 194.52 359.679 195.16C360.079 195.8 360.706 196.12 361.559 196.12C361.933 196.12 362.213 196.28 362.399 196.6C362.613 196.92 362.719 197.347 362.719 197.88C362.719 198.307 362.599 198.693 362.359 199.04C362.146 199.387 361.786 199.56 361.279 199.56C357.413 199.56 355.479 197.187 355.479 192.44V187.32C355.479 185.933 355.226 184.867 354.719 184.12C354.213 183.373 353.493 183 352.559 183C351.146 183 350.026 183.813 349.199 185.44C348.399 187.04 347.999 189.267 347.999 192.12V199C347.733 199.08 347.439 199.147 347.119 199.2C346.799 199.253 346.493 199.28 346.199 199.28C345.559 199.28 344.946 199.187 344.359 199V187.88C344.359 186.307 344.079 185.107 343.519 184.28C342.986 183.427 342.186 183 341.119 183C340.159 183 339.306 183.387 338.559 184.16C337.839 184.907 337.266 185.973 336.839 187.36C336.439 188.72 336.239 190.307 336.239 192.12V199C335.973 199.08 335.679 199.147 335.359 199.2C335.039 199.253 334.733 199.28 334.439 199.28C333.773 199.28 333.173 199.187 332.639 199V186.24C332.639 184.08 332.026 183 330.799 183C330.399 183 329.946 183.187 329.439 183.56C328.959 183.907 328.306 184.72 327.479 186L325.879 188.44ZM361.577 196.12C362.484 196.12 363.364 195.68 364.217 194.8C365.097 193.893 365.831 192.68 366.417 191.16C366.391 190.787 366.377 190.413 366.377 190.04C366.377 188.013 366.777 186.213 367.577 184.64C368.377 183.067 369.457 181.827 370.817 180.92C372.204 180.013 373.777 179.56 375.537 179.56C376.471 179.56 377.391 179.747 378.297 180.12C379.204 180.467 379.964 180.947 380.577 181.56V179.92C380.817 179.84 381.097 179.773 381.417 179.72C381.737 179.667 382.071 179.64 382.417 179.64C383.057 179.64 383.657 179.733 384.217 179.92V191.64C384.217 193.053 384.431 194.16 384.857 194.96C385.311 195.733 386.057 196.12 387.097 196.12C387.551 196.12 387.857 196.307 388.017 196.68C388.177 197.053 388.257 197.453 388.257 197.88C388.257 198.307 388.137 198.693 387.897 199.04C387.684 199.387 387.324 199.56 386.817 199.56C384.204 199.56 382.457 198.387 381.577 196.04C380.804 197.133 379.831 198 378.657 198.64C377.511 199.253 376.231 199.56 374.817 199.56C373.271 199.56 371.897 199.227 370.697 198.56C369.524 197.867 368.564 196.92 367.817 195.72C366.164 198.28 363.991 199.56 361.297 199.56C360.951 199.56 360.671 199.4 360.457 199.08C360.244 198.76 360.137 198.347 360.137 197.84C360.137 196.693 360.617 196.12 361.577 196.12ZM370.097 190.04C370.097 191.933 370.524 193.427 371.377 194.52C372.257 195.587 373.457 196.12 374.977 196.12C376.657 196.12 378.004 195.547 379.017 194.4C380.057 193.253 380.577 191.747 380.577 189.88V185.4C380.044 184.68 379.364 184.107 378.537 183.68C377.711 183.227 376.857 183 375.977 183C374.831 183 373.817 183.307 372.937 183.92C372.057 184.533 371.364 185.373 370.857 186.44C370.351 187.48 370.097 188.68 370.097 190.04ZM386.805 199.56C386.458 199.56 386.178 199.4 385.965 199.08C385.752 198.76 385.645 198.347 385.645 197.84C385.645 196.693 386.125 196.12 387.085 196.12C388.258 196.12 389.298 195.64 390.205 194.68C391.138 193.693 391.872 192.36 392.405 190.68C392.965 189 393.245 187.133 393.245 185.08C393.245 184.6 393.218 184.16 393.165 183.76C393.112 183.36 393.045 183.027 392.965 182.76C392.725 182.52 392.458 182.133 392.165 181.6C391.898 181.067 391.658 180.507 391.445 179.92C391.258 179.307 391.165 178.813 391.165 178.44C391.485 177.933 391.992 177.547 392.685 177.28C393.405 176.987 394.192 176.907 395.045 177.04C395.552 177.973 395.965 179.147 396.285 180.56C397.085 180.533 398.165 180.36 399.525 180.04C400.378 179.853 401.058 179.733 401.565 179.68C402.098 179.6 402.552 179.56 402.925 179.56C404.365 179.56 405.498 180.107 406.325 181.2C407.152 182.267 407.565 183.72 407.565 185.56V192C407.565 193.467 407.752 194.52 408.125 195.16C408.525 195.8 409.152 196.12 410.005 196.12C410.378 196.12 410.658 196.28 410.845 196.6C411.058 196.92 411.165 197.347 411.165 197.88C411.165 198.307 411.045 198.693 410.805 199.04C410.592 199.387 410.232 199.56 409.725 199.56C405.858 199.56 403.925 197.187 403.925 192.44V186.24C403.925 185.04 403.792 184.2 403.525 183.72C403.258 183.24 402.778 183 402.085 183C401.845 183 401.578 183.027 401.285 183.08C400.992 183.133 400.472 183.24 399.725 183.4C398.418 183.667 397.432 183.827 396.765 183.88C396.792 184.307 396.805 184.733 396.805 185.16C396.805 188.04 396.392 190.56 395.565 192.72C394.738 194.88 393.565 196.56 392.045 197.76C390.552 198.96 388.805 199.56 386.805 199.56ZM410.015 196.12C410.681 196.12 411.441 195.92 412.295 195.52C413.175 195.12 414.028 194.44 414.855 193.48C415.681 192.52 416.361 191.227 416.895 189.6C417.428 187.947 417.695 185.88 417.695 183.4V179.56H414.735C414.548 179.133 414.455 178.6 414.455 177.96C414.455 177.32 414.548 176.787 414.735 176.36H417.695V169.28C418.201 169.093 418.815 169 419.535 169C420.175 169 420.788 169.093 421.375 169.28V176.36H427.335C427.548 176.787 427.655 177.32 427.655 177.96C427.655 178.6 427.548 179.133 427.335 179.56H421.375V192.12C421.375 192.76 421.428 193.387 421.535 194C421.668 194.613 421.908 195.133 422.255 195.56C422.601 195.96 423.135 196.16 423.855 196.16C424.575 196.16 425.215 195.973 425.775 195.6C426.361 195.2 426.855 194.813 427.255 194.44C427.681 194.76 428.068 195.16 428.415 195.64C428.761 196.12 428.975 196.6 429.055 197.08C428.815 197.373 428.441 197.72 427.935 198.12C427.428 198.493 426.815 198.827 426.095 199.12C425.375 199.413 424.561 199.56 423.655 199.56C422.055 199.56 420.815 199.12 419.935 198.24C419.081 197.36 418.521 196.213 418.255 194.8C417.135 196.427 415.815 197.627 414.295 198.4C412.801 199.173 411.281 199.56 409.735 199.56C409.388 199.56 409.108 199.387 408.895 199.04C408.681 198.72 408.575 198.32 408.575 197.84C408.575 197.333 408.695 196.92 408.935 196.6C409.175 196.28 409.535 196.12 410.015 196.12ZM446.418 199.56C445.831 199.48 445.245 199.333 444.658 199.12C444.071 198.907 443.578 198.6 443.178 198.2L454.378 170.12C454.805 169.933 455.311 169.84 455.898 169.84C456.565 169.84 457.085 169.933 457.458 170.12L468.738 198.16C468.391 198.533 467.925 198.827 467.338 199.04C466.751 199.28 466.098 199.453 465.378 199.56L462.218 191.6H449.538L446.418 199.56ZM450.898 188.16H460.858L455.858 175.56L450.898 188.16ZM472.848 199.16C472.235 198.947 471.701 198.627 471.248 198.2C470.821 197.747 470.541 197.213 470.408 196.6C470.888 196.147 471.448 195.573 472.088 194.88C472.728 194.187 473.355 193.36 473.968 192.4C474.581 191.413 475.088 190.307 475.488 189.08C475.915 187.853 476.128 186.48 476.128 184.96V180.12C476.368 180.04 476.648 179.973 476.968 179.92C477.288 179.867 477.621 179.84 477.968 179.84C478.581 179.84 479.181 179.933 479.768 180.12V192C479.768 193.467 479.955 194.52 480.328 195.16C480.728 195.8 481.355 196.12 482.208 196.12C482.501 196.12 482.821 196.053 483.168 195.92C483.515 195.787 483.875 195.587 484.248 195.32C484.701 195.533 485.075 195.907 485.368 196.44C485.661 196.947 485.795 197.453 485.768 197.96C485.341 198.44 484.795 198.827 484.128 199.12C483.461 199.413 482.741 199.56 481.968 199.56H481.928C478.941 199.56 477.101 198.133 476.408 195.28C475.288 196.987 474.101 198.28 472.848 199.16ZM478.008 174.36C477.261 174.36 476.621 174.093 476.088 173.56C475.555 173.027 475.288 172.387 475.288 171.64C475.288 170.84 475.541 170.187 476.048 169.68C476.581 169.173 477.235 168.92 478.008 168.92C478.808 168.92 479.461 169.173 479.968 169.68C480.475 170.187 480.728 170.84 480.728 171.64C480.728 172.413 480.461 173.067 479.928 173.6C479.421 174.107 478.781 174.36 478.008 174.36ZM503.317 199.28C502.65 199.28 502.037 199.187 501.477 199V170.12C501.797 169.987 502.117 169.907 502.437 169.88C502.757 169.853 503.023 169.84 503.237 169.84C503.53 169.84 503.837 169.853 504.157 169.88C504.503 169.907 504.837 169.987 505.157 170.12L514.957 189.52L524.717 170.12C525.063 169.987 525.383 169.907 525.677 169.88C525.97 169.853 526.223 169.84 526.437 169.84C526.73 169.84 527.05 169.853 527.397 169.88C527.743 169.907 528.063 169.987 528.357 170.12V199C527.717 199.187 527.09 199.28 526.477 199.28C525.81 199.28 525.197 199.187 524.637 199V178.12L516.597 194.08C516.143 194.267 515.597 194.36 514.957 194.36C514.317 194.36 513.757 194.267 513.277 194.08L505.197 178.08V199C504.557 199.187 503.93 199.28 503.317 199.28ZM531.959 196.2C532.626 195.987 533.453 195.68 534.439 195.28C535.426 194.853 536.359 194.413 537.239 193.96C536.359 192.253 535.919 190.28 535.919 188.04C535.919 186.387 536.226 184.933 536.839 183.68C537.453 182.4 538.306 181.4 539.399 180.68C540.493 179.933 541.733 179.56 543.119 179.56C544.293 179.56 545.333 179.84 546.239 180.4C547.146 180.933 547.853 181.68 548.359 182.64C548.866 183.6 549.119 184.707 549.119 185.96C549.013 189.16 546.746 192.187 542.319 195.04C543.199 195.787 544.426 196.16 545.999 196.16C546.373 196.16 546.666 196.32 546.879 196.64C547.093 196.96 547.199 197.387 547.199 197.92C547.199 198.427 547.079 198.827 546.839 199.12C546.599 199.413 546.253 199.56 545.799 199.56C544.413 199.56 543.119 199.32 541.919 198.84C540.746 198.333 539.799 197.64 539.079 196.76C538.093 197.267 537.039 197.76 535.919 198.24C534.826 198.693 533.893 199.04 533.119 199.28C532.693 198.907 532.386 198.467 532.199 197.96C531.986 197.453 531.906 196.867 531.959 196.2ZM539.399 187.72C539.399 189.613 539.706 191.187 540.319 192.44C542.159 191.213 543.493 190.12 544.319 189.16C545.146 188.173 545.586 187.107 545.639 185.96C545.639 185 545.399 184.253 544.919 183.72C544.466 183.16 543.826 182.88 542.999 182.88C541.959 182.88 541.093 183.347 540.399 184.28C539.733 185.213 539.399 186.36 539.399 187.72ZM545.815 199.56C545.441 199.56 545.148 199.4 544.935 199.08C544.695 198.76 544.575 198.347 544.575 197.84C544.575 197.307 544.708 196.893 544.975 196.6C545.241 196.307 545.588 196.16 546.015 196.16C547.615 196.16 549.081 195.733 550.415 194.88C551.775 194 552.895 192.813 553.775 191.32C553.721 190.92 553.695 190.493 553.695 190.04C553.695 188.013 554.095 186.213 554.895 184.64C555.695 183.067 556.775 181.827 558.135 180.92C559.521 180.013 561.095 179.56 562.855 179.56C563.788 179.56 564.708 179.747 565.615 180.12C566.521 180.467 567.281 180.947 567.895 181.56V165.4C568.401 165.213 569.015 165.12 569.735 165.12C570.348 165.12 570.948 165.213 571.535 165.4V192C571.535 193.467 571.721 194.52 572.095 195.16C572.495 195.8 573.121 196.12 573.975 196.12C574.348 196.12 574.628 196.28 574.815 196.6C575.028 196.92 575.135 197.347 575.135 197.88C575.135 198.307 575.015 198.693 574.775 199.04C574.561 199.387 574.201 199.56 573.695 199.56C571.161 199.56 569.455 198.52 568.575 196.44C567.801 197.427 566.868 198.2 565.775 198.76C564.681 199.293 563.468 199.56 562.135 199.56C560.535 199.56 559.121 199.2 557.895 198.48C556.695 197.76 555.735 196.76 555.015 195.48C553.895 196.787 552.548 197.8 550.975 198.52C549.401 199.213 547.681 199.56 545.815 199.56ZM557.415 190.04C557.415 191.933 557.841 193.427 558.695 194.52C559.575 195.587 560.775 196.12 562.295 196.12C563.975 196.12 565.321 195.547 566.335 194.4C567.375 193.253 567.895 191.747 567.895 189.88V185.4C567.361 184.68 566.681 184.107 565.855 183.68C565.028 183.227 564.175 183 563.295 183C562.148 183 561.135 183.307 560.255 183.92C559.375 184.533 558.681 185.373 558.175 186.44C557.668 187.48 557.415 188.68 557.415 190.04ZM573.96 196.12C574.52 196.12 575.12 195.947 575.76 195.6C576.4 195.253 577 194.72 577.56 194C578.227 193.093 578.707 192.053 579 190.88C579.32 189.707 579.52 188.52 579.6 187.32V180.12C579.84 180.04 580.12 179.973 580.44 179.92C580.76 179.867 581.093 179.84 581.44 179.84C582.053 179.84 582.653 179.933 583.24 180.12V191.64C583.24 193.053 583.453 194.16 583.88 194.96C584.333 195.733 585.08 196.12 586.12 196.12C586.573 196.12 586.88 196.307 587.04 196.68C587.2 197.053 587.28 197.453 587.28 197.88C587.28 198.307 587.16 198.693 586.92 199.04C586.707 199.387 586.347 199.56 585.84 199.56C583.067 199.56 581.267 198.253 580.44 195.64C580.067 196.253 579.667 196.773 579.24 197.2C578.52 197.92 577.68 198.493 576.72 198.92C575.787 199.347 574.773 199.56 573.68 199.56C573.307 199.56 573.027 199.373 572.84 199C572.627 198.653 572.52 198.267 572.52 197.84C572.52 197.387 572.64 196.987 572.88 196.64C573.093 196.293 573.453 196.12 573.96 196.12ZM581.48 174.36C580.733 174.36 580.093 174.093 579.56 173.56C579.027 173.027 578.76 172.387 578.76 171.64C578.76 170.84 579.013 170.187 579.52 169.68C580.053 169.173 580.707 168.92 581.48 168.92C582.28 168.92 582.933 169.173 583.44 169.68C583.947 170.187 584.2 170.84 584.2 171.64C584.2 172.413 583.933 173.067 583.4 173.6C582.893 174.107 582.253 174.36 581.48 174.36ZM586.108 196.12C586.962 196.12 587.802 195.707 588.628 194.88C589.482 194.053 590.215 192.933 590.828 191.52C590.722 190.907 590.668 190.28 590.668 189.64C590.668 187.667 591.042 185.933 591.788 184.44C592.535 182.92 593.562 181.733 594.868 180.88C596.202 180 597.722 179.56 599.428 179.56C600.708 179.56 601.868 179.813 602.908 180.32C603.975 180.8 604.842 181.507 605.508 182.44C605.188 183.533 604.415 184.32 603.188 184.8C602.308 183.6 601.095 183 599.548 183C598.002 183 596.748 183.587 595.788 184.76C594.855 185.907 594.388 187.467 594.388 189.44C594.388 191.467 594.975 193.093 596.148 194.32C597.348 195.547 599.042 196.16 601.228 196.16C601.575 196.16 601.855 196.333 602.068 196.68C602.308 197 602.428 197.413 602.428 197.92C602.428 198.427 602.295 198.827 602.028 199.12C601.788 199.413 601.442 199.56 600.988 199.56C599.095 199.56 597.415 199.213 595.948 198.52C594.482 197.827 593.308 196.853 592.428 195.6C590.775 198.24 588.575 199.56 585.828 199.56C585.482 199.56 585.202 199.4 584.988 199.08C584.775 198.76 584.668 198.347 584.668 197.84C584.668 196.693 585.148 196.12 586.108 196.12ZM601.01 199.56C600.637 199.56 600.343 199.4 600.13 199.08C599.89 198.76 599.77 198.347 599.77 197.84C599.77 197.307 599.903 196.893 600.17 196.6C600.437 196.307 600.783 196.16 601.21 196.16C602.81 196.16 604.277 195.733 605.61 194.88C606.97 194 608.09 192.813 608.97 191.32C608.917 190.92 608.89 190.493 608.89 190.04C608.89 188.013 609.29 186.213 610.09 184.64C610.89 183.067 611.97 181.827 613.33 180.92C614.717 180.013 616.29 179.56 618.05 179.56C618.983 179.56 619.903 179.747 620.81 180.12C621.717 180.467 622.477 180.947 623.09 181.56V179.92C623.33 179.84 623.61 179.773 623.93 179.72C624.25 179.667 624.583 179.64 624.93 179.64C625.57 179.64 626.17 179.733 626.73 179.92V192C626.73 193.467 626.917 194.52 627.29 195.16C627.69 195.8 628.317 196.12 629.17 196.12C629.543 196.12 629.823 196.28 630.01 196.6C630.223 196.92 630.33 197.347 630.33 197.88C630.33 198.307 630.21 198.693 629.97 199.04C629.757 199.387 629.397 199.56 628.89 199.56C626.357 199.56 624.65 198.52 623.77 196.44C622.997 197.427 622.063 198.2 620.97 198.76C619.877 199.293 618.663 199.56 617.33 199.56C615.73 199.56 614.317 199.2 613.09 198.48C611.89 197.76 610.93 196.76 610.21 195.48C609.09 196.787 607.743 197.8 606.17 198.52C604.597 199.213 602.877 199.56 601.01 199.56ZM612.61 190.04C612.61 191.933 613.037 193.427 613.89 194.52C614.77 195.587 615.97 196.12 617.49 196.12C619.17 196.12 620.517 195.547 621.53 194.4C622.57 193.253 623.09 191.747 623.09 189.88V185.4C622.557 184.68 621.877 184.107 621.05 183.68C620.223 183.227 619.37 183 618.49 183C617.343 183 616.33 183.307 615.45 183.92C614.57 184.533 613.877 185.373 613.37 186.44C612.863 187.48 612.61 188.68 612.61 190.04ZM628.875 199.56C628.529 199.56 628.249 199.4 628.035 199.08C627.822 198.76 627.715 198.347 627.715 197.84C627.715 197.307 627.849 196.893 628.115 196.6C628.355 196.28 628.689 196.12 629.115 196.12C630.022 196.12 631.009 195.773 632.075 195.08C633.142 194.387 634.155 193.44 635.115 192.24C634.689 190.56 634.382 188.52 634.195 186.12C634.009 183.693 633.915 180.813 633.915 177.48C633.915 175.107 633.942 173.093 633.995 171.44C634.049 169.787 634.155 168.4 634.315 167.28C634.475 166.16 634.675 165.213 634.915 164.44C635.182 163.64 635.515 162.92 635.915 162.28C636.502 161.32 637.222 160.627 638.075 160.2C638.955 159.773 639.915 159.56 640.955 159.56C643.035 159.56 644.635 160.48 645.755 162.32C646.875 164.16 647.435 166.693 647.435 169.92C647.435 173.707 646.702 177.6 645.235 181.6C643.795 185.6 641.715 189.427 638.995 193.08C639.022 193.187 639.062 193.293 639.115 193.4C639.515 194.36 640.035 195.067 640.675 195.52C641.342 195.947 642.089 196.16 642.915 196.16C643.982 196.16 644.929 195.88 645.755 195.32C646.582 195.987 647.062 196.893 647.195 198.04C645.942 199.053 644.462 199.56 642.755 199.56C641.555 199.56 640.462 199.293 639.475 198.76C638.489 198.227 637.662 197.507 636.995 196.6C636.835 196.36 636.675 196.12 636.515 195.88C634.169 198.333 631.622 199.56 628.875 199.56ZM637.475 177.72C637.475 182.307 637.649 185.96 637.995 188.68C639.942 185.4 641.409 182.187 642.395 179.04C643.382 175.893 643.875 172.84 643.875 169.88C643.875 167.667 643.622 165.973 643.115 164.8C642.609 163.6 641.889 163 640.955 163C639.915 163 639.129 163.613 638.595 164.84C638.329 165.48 638.102 166.293 637.915 167.28C637.755 168.24 637.635 169.547 637.555 171.2C637.502 172.853 637.475 175.027 637.475 177.72ZM665.598 199.56C665.011 199.48 664.424 199.333 663.838 199.12C663.251 198.907 662.758 198.6 662.358 198.2L673.558 170.12C673.984 169.933 674.491 169.84 675.078 169.84C675.744 169.84 676.264 169.933 676.638 170.12L687.918 198.16C687.571 198.533 687.104 198.827 686.518 199.04C685.931 199.28 685.278 199.453 684.558 199.56L681.398 191.6H668.718L665.598 199.56ZM670.078 188.16H680.038L675.038 175.56L670.078 188.16ZM698.567 199.56C696.887 199.56 695.407 199.16 694.127 198.36C692.873 197.56 691.887 196.44 691.167 195C690.473 193.56 690.127 191.907 690.127 190.04C690.127 188.013 690.527 186.213 691.327 184.64C692.127 183.067 693.207 181.827 694.567 180.92C695.953 180.013 697.527 179.56 699.287 179.56C700.22 179.56 701.14 179.747 702.047 180.12C702.953 180.467 703.713 180.947 704.327 181.56V179.92C704.567 179.84 704.847 179.773 705.167 179.72C705.487 179.667 705.82 179.64 706.167 179.64C706.807 179.64 707.407 179.733 707.967 179.92V210.2C707.967 216.44 705.687 219.56 701.127 219.56C699.02 219.56 697.367 218.933 696.167 217.68C694.993 216.427 694.407 214.707 694.407 212.52C694.407 207.64 697.74 203.067 704.407 198.8V197.12C703.66 197.893 702.793 198.493 701.807 198.92C700.82 199.347 699.74 199.56 698.567 199.56ZM693.847 190.04C693.847 191.933 694.273 193.427 695.127 194.52C696.007 195.587 697.207 196.12 698.727 196.12C700.407 196.12 701.753 195.547 702.767 194.4C703.807 193.253 704.327 191.747 704.327 189.88V185.4C703.793 184.68 703.113 184.107 702.287 183.68C701.46 183.227 700.607 183 699.727 183C698.58 183 697.567 183.307 696.687 183.92C695.807 184.533 695.113 185.373 694.607 186.44C694.1 187.48 693.847 188.68 693.847 190.04ZM698.007 212.44C698.007 213.587 698.273 214.48 698.807 215.12C699.34 215.787 700.073 216.12 701.007 216.12C703.273 216.12 704.407 214.147 704.407 210.2V203.04C700.14 206.053 698.007 209.187 698.007 212.44ZM707.1 201.52C706.7 201.493 706.326 201.24 705.98 200.76C705.633 200.28 705.473 199.827 705.5 199.4C705.5 198.973 705.753 198.6 706.26 198.28L714.9 192.72C714.313 191.28 714.02 189.72 714.02 188.04C714.02 186.387 714.326 184.92 714.94 183.64C715.58 182.36 716.446 181.36 717.54 180.64C718.66 179.92 719.94 179.56 721.38 179.56C722.526 179.56 723.54 179.827 724.42 180.36C725.3 180.867 725.993 181.56 726.5 182.44C727.006 183.32 727.26 184.333 727.26 185.48C727.26 186.867 726.633 188.253 725.38 189.64C724.126 191.027 722.18 192.493 719.54 194.04C719.993 194.68 720.633 195.2 721.46 195.6C722.286 195.973 723.206 196.16 724.22 196.16C725.02 196.16 725.42 196.733 725.42 197.88C725.42 198.387 725.286 198.787 725.02 199.08C724.78 199.4 724.433 199.56 723.98 199.56C720.806 199.56 718.3 198.32 716.46 195.84L708.22 201.2C707.873 201.44 707.5 201.547 707.1 201.52ZM717.5 187.72C717.5 189.107 717.7 190.253 718.1 191.16C720.153 189.827 721.606 188.733 722.46 187.88C723.34 187 723.78 186.173 723.78 185.4C723.78 184.627 723.553 184.013 723.1 183.56C722.646 183.107 722.033 182.88 721.26 182.88C720.166 182.88 719.26 183.333 718.54 184.24C717.846 185.147 717.5 186.307 717.5 187.72ZM723.9 199.56C723.553 199.56 723.273 199.4 723.06 199.08C722.846 198.76 722.74 198.347 722.74 197.84C722.74 197.307 722.873 196.893 723.14 196.6C723.38 196.307 723.713 196.16 724.14 196.16C725.766 196.16 727.153 195.667 728.3 194.68C729.473 193.693 730.673 191.987 731.9 189.56L734.14 185.2C735.233 183.067 736.273 181.6 737.26 180.8C738.246 179.973 739.393 179.56 740.7 179.56C741.9 179.56 742.913 179.92 743.74 180.64C744.566 181.333 745.14 182.28 745.46 183.48C746.206 182.227 747.166 181.267 748.34 180.6C749.513 179.907 750.82 179.56 752.26 179.56C754.34 179.56 755.94 180.24 757.06 181.6C758.206 182.96 758.78 184.867 758.78 187.32V192C758.78 193.467 758.966 194.52 759.34 195.16C759.74 195.8 760.366 196.12 761.22 196.12C761.593 196.12 761.873 196.28 762.06 196.6C762.273 196.92 762.38 197.347 762.38 197.88C762.38 198.307 762.26 198.693 762.02 199.04C761.806 199.387 761.446 199.56 760.94 199.56C757.073 199.56 755.14 197.187 755.14 192.44V187.32C755.14 184.44 754.006 183 751.74 183C750.566 183 749.526 183.467 748.62 184.4C747.74 185.333 747.046 186.627 746.54 188.28C746.06 189.933 745.82 191.853 745.82 194.04V199C745.553 199.08 745.26 199.147 744.94 199.2C744.62 199.253 744.313 199.28 744.02 199.28C743.38 199.28 742.78 199.187 742.22 199V186.24C742.22 185.2 742.086 184.4 741.82 183.84C741.553 183.28 741.073 183 740.38 183C739.846 183 739.34 183.333 738.86 184C738.406 184.64 737.833 185.64 737.14 187L734.38 192.32C733.1 194.773 731.606 196.6 729.9 197.8C728.22 198.973 726.22 199.56 723.9 199.56ZM761.226 196.12C761.892 196.12 762.652 195.92 763.506 195.52C764.386 195.12 765.239 194.44 766.066 193.48C766.892 192.52 767.572 191.227 768.106 189.6C768.639 187.947 768.906 185.88 768.906 183.4V179.56H765.946C765.759 179.133 765.666 178.6 765.666 177.96C765.666 177.32 765.759 176.787 765.946 176.36H768.906V169.28C769.412 169.093 770.026 169 770.746 169C771.386 169 771.999 169.093 772.586 169.28V176.36H778.546C778.759 176.787 778.866 177.32 778.866 177.96C778.866 178.6 778.759 179.133 778.546 179.56H772.586V192.12C772.586 192.76 772.639 193.387 772.746 194C772.879 194.613 773.119 195.133 773.466 195.56C773.812 195.96 774.346 196.16 775.066 196.16C775.786 196.16 776.426 195.973 776.986 195.6C777.572 195.2 778.066 194.813 778.466 194.44C778.892 194.76 779.279 195.16 779.626 195.64C779.972 196.12 780.186 196.6 780.266 197.08C780.026 197.373 779.652 197.72 779.146 198.12C778.639 198.493 778.026 198.827 777.306 199.12C776.586 199.413 775.772 199.56 774.866 199.56C773.266 199.56 772.026 199.12 771.146 198.24C770.292 197.36 769.732 196.213 769.466 194.8C768.346 196.427 767.026 197.627 765.506 198.4C764.012 199.173 762.492 199.56 760.946 199.56C760.599 199.56 760.319 199.387 760.106 199.04C759.892 198.72 759.786 198.32 759.786 197.84C759.786 197.333 759.906 196.92 760.146 196.6C760.386 196.28 760.746 196.12 761.226 196.12Z" fill="#292A2F"/>
</svg>
